<svg xmlns="http://www.w3.org/2000/svg" viewBox="0 0 128 128" fill="none">
  <rect width="128" height="128" rx="28" fill="#F4F2EB" />
  <path
    d="M30 72C30 53.2223 45.2223 38 64 38C82.7777 38 98 53.2223 98 72V92H30V72Z"
    fill="#0F766E"
    fill-opacity="0.16"
  />
  <path
    d="M44 66C44 54.9543 52.9543 46 64 46C75.0457 46 84 54.9543 84 66C84 77.0457 75.0457 86 64 86C52.9543 86 44 77.0457 44 66Z"
    fill="#0F766E"
  />
  <path
    d="M64 56L68.3262 64.6738L78 66L70.9975 72.5762L72.6525 82L64 77.416L55.3475 82L57.0025 72.5762L50 66L59.6738 64.6738L64 56Z"
    fill="#F4F2EB"
  />
</svg>
